<svg xmlns="http://www.w3.org/2000/svg" width="60" height="60" viewBox="0 0 203.2 203.2"><defs><linearGradient x1="0" y1="0" x2="1" y2="0" gradientUnits="userSpaceOnUse" gradientTransform="matrix(81.48797 0 0 80.79818 7.938 208.79)" spreadMethod="pad" id="c"><stop offset="0" stop-color="#8ad9f8"/><stop offset="1" stop-color="#1574c4"/></linearGradient><linearGradient x1="0" y1="0" x2="1" y2="0" gradientUnits="userSpaceOnUse" gradientTransform="matrix(106.18162 0 0 105.28276 89.08 195.398)" spreadMethod="pad" id="b"><stop offset="0" stop-color="#8ad9f8"/><stop offset="1" stop-color="#1574c4"/></linearGradient><linearGradient x1="0" y1="0" x2="1" y2="0" gradientUnits="userSpaceOnUse" gradientTransform="matrix(0 -211.83537 213.64389 0 103.575 295.897)" spreadMethod="pad" id="a"><stop offset="0" stop-color="#8ad9f8"/><stop offset="1" stop-color="#1574c4"/></linearGradient></defs><g fill-rule="evenodd"><path d="M113.842 115.08c2.405 6.046 3.532 12.357 3.106 18.8-.197 2.977.528 5.323 2.624 7.154 2.976 2.6 6.157 4.978 9.293 7.395 1.842 1.42 3.823 2.664 5.643 4.108 1.783 1.414 1.876 2.931-.021 4.448-1.672 1.337-3.264 2.773-5.062 4.311 1.26 1.506 2.295 2.996 3.584 4.222 1.836 1.743 1.624 3.281-.168 4.746-.797.651-1.802 1.051-2.793 1.612 5.549 4.685 5.549 4.685.197 10.103.665 1.307 1.464 2.619 2.022 4.027 1.627 4.094.643 7.174-3.057 9.592-4.181 2.731-9.005 3.467-13.82 3.994-8.573.944-16.195 3.675-21.676 10.683-4.884 6.248-6.893 13.56-7.788 21.25-1.302 11.182-.3 22.27 1.45 33.326.116.735.101 1.49-.3 2.478-1.24-1.687-2.53-3.343-3.713-5.071-8.484-12.397-12.54-26.143-12.05-41.067.455-13.921 4.632-26.959 10.4-39.576 6.32-13.823 14.365-26.616 23.05-39.056 5.746-8.232 9.5-17.13 9.077-27.48" fill="url(#a)" transform="translate(0 -93.8)"/><path d="M106.46 21.874c-2.452 10.41-7.376 18.808-13.154 26.786-5.193 7.17-11.538 13.242-18.451 18.73-6.545 5.197-13.219 10.231-19.839 15.338l-.664-.312c.436-.84.677-1.899 1.342-2.487 5.877-5.195 11.84-10.298 17.76-15.446 13.44-11.687 24.176-25.435 32.087-41.343.112-.223.297-.415.918-1.265" fill="#00adef"/><path d="M89.093 296.24c-.258 3.673 3.532-7.007 5.681-10.068 9.074-12.918 21.318-23.176 33.37-33.434 20.635-17.564 39.68-34.9 52.478-59.064 12.5-23.606 21.96-50.495 6.92-75.598-13.195-22.023-37.903-28.356-61.96-21.845 0 0 47.749 11.09 47.749 65.6 0 49.766-81.828 100.277-84.238 134.408" fill="url(#b)" transform="translate(0 -93.8)"/><path d="M89.425 296.36c0 3.145-2.583-6.18-4.23-8.913-6.948-11.542-16.757-21.008-26.403-30.46-16.515-16.188-31.69-32.082-41.13-53.428-9.221-20.85-15.654-44.315-1.326-64.804 12.571-17.974 33.998-21.901 54.096-14.923 0 0-49.074 7.478-44.482 53.798 6.347 64 63.486 89.514 63.475 118.73" fill="url(#c)" transform="translate(0 -93.8)"/></g></svg>
